<svg width="116" height="28" viewBox="0 0 116 28" fill="none" xmlns="http://www.w3.org/2000/svg">
<path d="M4.11178 22.3926H15.1957V26.4775H0V0.482759H15.017V4.56764H4.11178V11.3263H14.1231V15.374H4.11178V22.3926ZM43.4568 13.4801C43.4568 16.9461 42.3603 19.9416 40.1674 22.4668L42.8132 25.2891L39.9171 28L37.164 25.0663C35.0664 26.3289 32.8377 26.9602 30.4779 26.9602C26.8786 26.9602 23.8156 25.6605 21.2889 23.061C18.7622 20.4368 17.4988 17.2431 17.4988 13.4801C17.4988 9.71707 18.7622 6.53581 21.2889 3.93634C23.8156 1.31211 26.8786 0 30.4779 0C34.0772 0 37.1401 1.31211 39.6668 3.93634C42.1935 6.53581 43.4568 9.71707 43.4568 13.4801ZM30.4779 22.8011C31.8127 22.8011 33.0641 22.5164 34.2321 21.947L29.6555 17.0822L32.5516 14.3714L37.3427 19.4589C38.6776 17.7507 39.345 15.7577 39.345 13.4801C39.345 10.8311 38.4869 8.61539 36.7707 6.83289C35.0545 5.0504 32.9568 4.15915 30.4779 4.15915C27.9989 4.15915 25.9013 5.0504 24.185 6.83289C22.4688 8.61539 21.6107 10.8311 21.6107 13.4801C21.6107 16.1291 22.4688 18.3448 24.185 20.1273C25.9013 21.9098 27.9989 22.8011 30.4779 22.8011ZM63.2261 24.5093C61.4622 26.1432 59.1859 26.9602 56.397 26.9602C53.6081 26.9602 51.3318 26.1432 49.5679 24.5093C47.804 22.8506 46.922 20.6348 46.922 17.8621V0.482759H51.0338V17.6021C51.0338 19.1866 51.4748 20.4492 52.3567 21.3899C53.2625 22.3307 54.6093 22.8011 56.397 22.8011C58.1847 22.8011 59.5196 22.3307 60.4015 21.3899C61.3073 20.4492 61.7602 19.1866 61.7602 17.6021V0.482759H65.872V17.8621C65.872 20.6348 64.99 22.8506 63.2261 24.5093ZM70.6015 0.482759H74.7133V26.4775H70.6015V0.482759ZM88.9395 0.482759C91.2993 0.482759 93.2658 1.29973 94.839 2.93369C96.4361 4.56764 97.2346 6.5977 97.2346 9.02387C97.2346 11.4253 96.4361 13.4554 94.839 15.1141C93.2658 16.748 91.2993 17.565 88.9395 17.565H83.8266V26.4775H79.7148V0.482759H88.9395ZM88.9395 13.5544C90.1551 13.5544 91.1563 13.1335 91.9429 12.2918C92.7295 11.4253 93.1228 10.336 93.1228 9.02387C93.1228 7.71176 92.7295 6.63484 91.9429 5.79311C91.1563 4.92662 90.1551 4.49337 88.9395 4.49337H83.8266V13.5544H88.9395ZM104.916 22.3926H116V26.4775H100.804V0.482759H115.821V4.56764H104.916V11.3263H114.927V15.374H104.916V22.3926Z" fill="white"/>
</svg>
