<svg width="61" height="60" viewBox="0 0 61 60" fill="none" xmlns="http://www.w3.org/2000/svg">
<rect x="0.5" width="60" height="60" rx="30" fill="#4989F1"/>
<path d="M22.6253 24.3125C22.6253 22.572 23.3167 20.9028 24.5475 19.6721C25.7782 18.4414 27.4474 17.75 29.1878 17.75C30.9283 17.75 32.5975 18.4414 33.8282 19.6721C35.0589 20.9028 35.7503 22.572 35.7503 24.3125C35.7503 24.5446 35.6582 24.7671 35.4941 24.9312C35.33 25.0953 35.1074 25.1875 34.8753 25.1875C34.6433 25.1875 34.4207 25.0953 34.2566 24.9312C34.0925 24.7671 34.0003 24.5446 34.0003 24.3125C34.0003 23.0361 33.4933 21.8121 32.5908 20.9095C31.6883 20.007 30.4642 19.5 29.1878 19.5C27.9115 19.5 26.6874 20.007 25.7849 20.9095C24.8824 21.8121 24.3753 23.0361 24.3753 24.3125C24.3753 24.5446 24.2832 24.7671 24.1191 24.9312C23.955 25.0953 23.7324 25.1875 23.5003 25.1875C23.2683 25.1875 23.0457 25.0953 22.8816 24.9312C22.7175 24.7671 22.6253 24.5446 22.6253 24.3125ZM37.9378 29.125C37.4274 29.1244 36.925 29.2519 36.4766 29.4958C36.3426 29.0811 36.1217 28.6999 35.8285 28.3774C35.5354 28.055 35.1769 27.7988 34.7768 27.626C34.3768 27.4532 33.9445 27.3678 33.5088 27.3755C33.0731 27.3831 32.6441 27.4836 32.2503 27.6703V24.3125C32.2503 23.5003 31.9277 22.7213 31.3534 22.147C30.779 21.5727 30.0001 21.25 29.1878 21.25C28.3756 21.25 27.5967 21.5727 27.0223 22.147C26.448 22.7213 26.1253 23.5003 26.1253 24.3125V33.0625L25.7075 32.392C25.2989 31.6899 24.6282 31.1788 23.8428 30.9712C23.0574 30.7637 22.2217 30.8766 21.5196 31.2852C20.8174 31.6937 20.3063 32.3645 20.0988 33.1499C19.8912 33.9353 20.0041 34.771 20.4127 35.4731L23.6196 40.9419C23.6733 41.0484 23.7483 41.1428 23.8399 41.2192C23.9316 41.2957 24.0378 41.3526 24.1522 41.3865C24.2667 41.4203 24.3868 41.4305 24.5052 41.4162C24.6237 41.4019 24.738 41.3636 24.8411 41.3035C24.9442 41.2434 25.0339 41.1629 25.1048 41.0669C25.1756 40.9709 25.226 40.8614 25.253 40.7452C25.28 40.6289 25.2829 40.5084 25.2615 40.391C25.2402 40.2736 25.1951 40.1618 25.1289 40.0625L21.9253 34.5937C21.8354 34.4444 21.7761 34.2785 21.751 34.106C21.7258 33.9334 21.7353 33.7576 21.7789 33.5888C21.8225 33.4199 21.8993 33.2615 22.0048 33.1226C22.1103 32.9838 22.2424 32.8674 22.3934 32.7802C22.5444 32.693 22.7113 32.6367 22.8843 32.6147C23.0573 32.5928 23.2329 32.6055 23.4009 32.6521C23.5689 32.6988 23.726 32.7784 23.8628 32.8864C23.9997 32.9945 24.1137 33.1287 24.1982 33.2812L24.2135 33.3064L26.2566 36.5877C26.3569 36.7495 26.5073 36.8742 26.6849 36.9429C26.8625 37.0115 27.0577 37.0204 27.2408 36.968C27.4239 36.9157 27.5849 36.8051 27.6994 36.6529C27.814 36.5008 27.8757 36.3154 27.8753 36.125V24.3125C27.8753 23.9644 28.0136 23.6306 28.2598 23.3844C28.5059 23.1383 28.8397 23 29.1878 23C29.5359 23 29.8698 23.1383 30.1159 23.3844C30.3621 23.6306 30.5003 23.9644 30.5003 24.3125V31.75C30.5003 31.9821 30.5925 32.2046 30.7566 32.3687C30.9207 32.5328 31.1433 32.625 31.3753 32.625C31.6074 32.625 31.83 32.5328 31.9941 32.3687C32.1582 32.2046 32.2503 31.9821 32.2503 31.75V30.4375C32.2503 30.0894 32.3886 29.7556 32.6348 29.5094C32.8809 29.2633 33.2147 29.125 33.5628 29.125C33.9109 29.125 34.2448 29.2633 34.4909 29.5094C34.7371 29.7556 34.8753 30.0894 34.8753 30.4375V32.625C34.8753 32.8571 34.9675 33.0796 35.1316 33.2437C35.2957 33.4078 35.5183 33.5 35.7503 33.5C35.9824 33.5 36.205 33.4078 36.3691 33.2437C36.5332 33.0796 36.6253 32.8571 36.6253 32.625V32.1875C36.6253 31.8394 36.7636 31.5056 37.0098 31.2594C37.2559 31.0133 37.5897 30.875 37.9378 30.875C38.2859 30.875 38.6198 31.0133 38.8659 31.2594C39.1121 31.5056 39.2503 31.8394 39.2503 32.1875V36.125C39.2503 38.4886 38.4738 40.0953 38.4672 40.1084C38.3636 40.316 38.3466 40.5562 38.42 40.7763C38.4934 40.9964 38.6513 41.1783 38.8588 41.282C38.9802 41.3434 39.1143 41.3753 39.2503 41.375C39.4129 41.3751 39.5723 41.3299 39.7106 41.2446C39.8489 41.1592 39.9607 41.0369 40.0335 40.8916C40.0739 40.8117 41.0014 38.9228 41.0014 36.125V32.1875C41.0014 31.7852 40.9222 31.3869 40.7682 31.0153C40.6142 30.6436 40.3886 30.306 40.1041 30.0216C39.8196 29.7372 39.4818 29.5116 39.1101 29.3578C38.7385 29.204 38.3401 29.1249 37.9378 29.125Z" fill="white"/>
</svg>
