<svg width="61" height="61" viewBox="0 0 61 61" fill="none" xmlns="http://www.w3.org/2000/svg">
<rect x="0.5" y="0.5" width="60" height="60" rx="30" fill="#4989F1"/>
<path d="M31.375 20V23.5C31.375 23.7321 31.2828 23.9546 31.1187 24.1187C30.9546 24.2828 30.7321 24.375 30.5 24.375C30.2679 24.375 30.0454 24.2828 29.8813 24.1187C29.7172 23.9546 29.625 23.7321 29.625 23.5V20C29.625 19.7679 29.7172 19.5454 29.8813 19.3813C30.0454 19.2172 30.2679 19.125 30.5 19.125C30.7321 19.125 30.9546 19.2172 31.1187 19.3813C31.2828 19.5454 31.375 19.7679 31.375 20ZM35.4492 26.4258C35.5642 26.4257 35.6781 26.403 35.7843 26.3589C35.8906 26.3148 35.9871 26.2502 36.0683 26.1688L38.5434 23.6947C38.7076 23.5305 38.7999 23.3078 38.7999 23.0756C38.7999 22.8434 38.7076 22.6207 38.5434 22.4566C38.3793 22.2924 38.1566 22.2001 37.9244 22.2001C37.6922 22.2001 37.4695 22.2924 37.3053 22.4566L34.8313 24.9317C34.7088 25.054 34.6254 25.2099 34.5915 25.3796C34.5577 25.5493 34.5749 25.7253 34.6411 25.8852C34.7072 26.0451 34.8193 26.1819 34.9631 26.2781C35.107 26.3743 35.2762 26.4257 35.4492 26.4258ZM41 29.625H37.5C37.2679 29.625 37.0454 29.7172 36.8813 29.8813C36.7172 30.0454 36.625 30.2679 36.625 30.5C36.625 30.7321 36.7172 30.9546 36.8813 31.1187C37.0454 31.2828 37.2679 31.375 37.5 31.375H41C41.2321 31.375 41.4546 31.2828 41.6187 31.1187C41.7828 30.9546 41.875 30.7321 41.875 30.5C41.875 30.2679 41.7828 30.0454 41.6187 29.8813C41.4546 29.7172 41.2321 29.625 41 29.625ZM36.0683 34.8313C35.9029 34.6741 35.6826 34.5878 35.4544 34.5907C35.2262 34.5936 35.0082 34.6855 34.8469 34.8469C34.6855 35.0082 34.5936 35.2262 34.5907 35.4544C34.5878 35.6826 34.6741 35.9029 34.8313 36.0683L37.3053 38.5434C37.4695 38.7076 37.6922 38.7999 37.9244 38.7999C38.1566 38.7999 38.3793 38.7076 38.5434 38.5434C38.7076 38.3793 38.7999 38.1566 38.7999 37.9244C38.7999 37.6922 38.7076 37.4695 38.5434 37.3053L36.0683 34.8313ZM30.5 36.625C30.2679 36.625 30.0454 36.7172 29.8813 36.8813C29.7172 37.0454 29.625 37.2679 29.625 37.5V41C29.625 41.2321 29.7172 41.4546 29.8813 41.6187C30.0454 41.7828 30.2679 41.875 30.5 41.875C30.7321 41.875 30.9546 41.7828 31.1187 41.6187C31.2828 41.4546 31.375 41.2321 31.375 41V37.5C31.375 37.2679 31.2828 37.0454 31.1187 36.8813C30.9546 36.7172 30.7321 36.625 30.5 36.625ZM24.9317 34.8313L22.4566 37.3053C22.2924 37.4695 22.2001 37.6922 22.2001 37.9244C22.2001 38.1566 22.2924 38.3793 22.4566 38.5434C22.6207 38.7076 22.8434 38.7999 23.0756 38.7999C23.3078 38.7999 23.5305 38.7076 23.6947 38.5434L26.1688 36.0683C26.3259 35.9029 26.4122 35.6826 26.4093 35.4544C26.4064 35.2262 26.3145 35.0082 26.1531 34.8469C25.9918 34.6855 25.7738 34.5936 25.5456 34.5907C25.3174 34.5878 25.0971 34.6741 24.9317 34.8313ZM24.375 30.5C24.375 30.2679 24.2828 30.0454 24.1187 29.8813C23.9546 29.7172 23.7321 29.625 23.5 29.625H20C19.7679 29.625 19.5454 29.7172 19.3813 29.8813C19.2172 30.0454 19.125 30.2679 19.125 30.5C19.125 30.7321 19.2172 30.9546 19.3813 31.1187C19.5454 31.2828 19.7679 31.375 20 31.375H23.5C23.7321 31.375 23.9546 31.2828 24.1187 31.1187C24.2828 30.9546 24.375 30.7321 24.375 30.5ZM23.6947 22.4566C23.5305 22.2924 23.3078 22.2001 23.0756 22.2001C22.8434 22.2001 22.6207 22.2924 22.4566 22.4566C22.2924 22.6207 22.2001 22.8434 22.2001 23.0756C22.2001 23.3078 22.2924 23.5305 22.4566 23.6947L24.9317 26.1688C25.0971 26.3259 25.3174 26.4122 25.5456 26.4093C25.7738 26.4064 25.9918 26.3145 26.1531 26.1531C26.3145 25.9918 26.4064 25.7738 26.4093 25.5456C26.4122 25.3174 26.3259 25.0971 26.1688 24.9317L23.6947 22.4566Z" fill="white"/>
</svg>
