<svg width="60" height="60" viewBox="0 0 60 60" fill="none" xmlns="http://www.w3.org/2000/svg">
<rect width="60" height="60" rx="30" fill="#4989F1"/>
<path d="M38.75 25.625H21.25C20.7859 25.625 20.3408 25.8094 20.0126 26.1376C19.6844 26.4658 19.5 26.9109 19.5 27.375V37.875C19.5 38.3391 19.6844 38.7842 20.0126 39.1124C20.3408 39.4406 20.7859 39.625 21.25 39.625H38.75C39.2141 39.625 39.6592 39.4406 39.9874 39.1124C40.3156 38.7842 40.5 38.3391 40.5 37.875V27.375C40.5 26.9109 40.3156 26.4658 39.9874 26.1376C39.6592 25.8094 39.2141 25.625 38.75 25.625ZM38.75 37.875H21.25V27.375H38.75V37.875ZM21.25 23C21.25 22.7679 21.3422 22.5454 21.5063 22.3813C21.6704 22.2172 21.8929 22.125 22.125 22.125H37.875C38.1071 22.125 38.3296 22.2172 38.4937 22.3813C38.6578 22.5454 38.75 22.7679 38.75 23C38.75 23.2321 38.6578 23.4546 38.4937 23.6187C38.3296 23.7828 38.1071 23.875 37.875 23.875H22.125C21.8929 23.875 21.6704 23.7828 21.5063 23.6187C21.3422 23.4546 21.25 23.2321 21.25 23ZM23 19.5C23 19.2679 23.0922 19.0454 23.2563 18.8813C23.4204 18.7172 23.6429 18.625 23.875 18.625H36.125C36.3571 18.625 36.5796 18.7172 36.7437 18.8813C36.9078 19.0454 37 19.2679 37 19.5C37 19.7321 36.9078 19.9546 36.7437 20.1187C36.5796 20.2828 36.3571 20.375 36.125 20.375H23.875C23.6429 20.375 23.4204 20.2828 23.2563 20.1187C23.0922 19.9546 23 19.7321 23 19.5Z" fill="white"/>
</svg>
