<svg width="60" height="60" viewBox="0 0 60 60" fill="none" xmlns="http://www.w3.org/2000/svg">
<rect width="60" height="60" rx="30" fill="#4989F1"/>
<path d="M21.2499 23C21.2499 22.7679 21.342 22.5454 21.5061 22.3813C21.6702 22.2172 21.8928 22.125 22.1249 22.125H23.8749V20.375C23.8749 20.1429 23.967 19.9204 24.1311 19.7563C24.2952 19.5922 24.5178 19.5 24.7499 19.5C24.9819 19.5 25.2045 19.5922 25.3686 19.7563C25.5327 19.9204 25.6249 20.1429 25.6249 20.375V22.125H27.3749C27.6069 22.125 27.8295 22.2172 27.9936 22.3813C28.1577 22.5454 28.2499 22.7679 28.2499 23C28.2499 23.2321 28.1577 23.4546 27.9936 23.6187C27.8295 23.7828 27.6069 23.875 27.3749 23.875H25.6249V25.625C25.6249 25.8571 25.5327 26.0796 25.3686 26.2437C25.2045 26.4078 24.9819 26.5 24.7499 26.5C24.5178 26.5 24.2952 26.4078 24.1311 26.2437C23.967 26.0796 23.8749 25.8571 23.8749 25.625V23.875H22.1249C21.8928 23.875 21.6702 23.7828 21.5061 23.6187C21.342 23.4546 21.2499 23.2321 21.2499 23ZM36.1249 37H35.2499V36.125C35.2499 35.8929 35.1577 35.6704 34.9936 35.5063C34.8295 35.3422 34.6069 35.25 34.3749 35.25C34.1428 35.25 33.9202 35.3422 33.7561 35.5063C33.592 35.6704 33.4999 35.8929 33.4999 36.125V37H32.6249C32.3928 37 32.1702 37.0922 32.0061 37.2563C31.842 37.4204 31.7499 37.6429 31.7499 37.875C31.7499 38.1071 31.842 38.3296 32.0061 38.4937C32.1702 38.6578 32.3928 38.75 32.6249 38.75H33.4999V39.625C33.4999 39.8571 33.592 40.0796 33.7561 40.2437C33.9202 40.4078 34.1428 40.5 34.3749 40.5C34.6069 40.5 34.8295 40.4078 34.9936 40.2437C35.1577 40.0796 35.2499 39.8571 35.2499 39.625V38.75H36.1249C36.3569 38.75 36.5795 38.6578 36.7436 38.4937C36.9077 38.3296 36.9999 38.1071 36.9999 37.875C36.9999 37.6429 36.9077 37.4204 36.7436 37.2563C36.5795 37.0922 36.3569 37 36.1249 37ZM42.2499 31.75H40.4999V30C40.4999 29.7679 40.4077 29.5454 40.2436 29.3813C40.0795 29.2172 39.8569 29.125 39.6249 29.125C39.3928 29.125 39.1702 29.2172 39.0061 29.3813C38.842 29.5454 38.7499 29.7679 38.7499 30V31.75H36.9999C36.7678 31.75 36.5452 31.8422 36.3811 32.0063C36.217 32.1704 36.1249 32.3929 36.1249 32.625C36.1249 32.8571 36.217 33.0796 36.3811 33.2437C36.5452 33.4078 36.7678 33.5 36.9999 33.5H38.7499V35.25C38.7499 35.4821 38.842 35.7046 39.0061 35.8687C39.1702 36.0328 39.3928 36.125 39.6249 36.125C39.8569 36.125 40.0795 36.0328 40.2436 35.8687C40.4077 35.7046 40.4999 35.4821 40.4999 35.25V33.5H42.2499C42.4819 33.5 42.7045 33.4078 42.8686 33.2437C43.0327 33.0796 43.1249 32.8571 43.1249 32.625C43.1249 32.3929 43.0327 32.1704 42.8686 32.0063C42.7045 31.8422 42.4819 31.75 42.2499 31.75ZM39.9869 24.75L24.7499 39.987C24.4217 40.315 23.9768 40.4992 23.5128 40.4992C23.0489 40.4992 22.6039 40.315 22.2758 39.987L20.0117 37.7252C19.8492 37.5626 19.7202 37.3697 19.6323 37.1574C19.5443 36.945 19.499 36.7174 19.499 36.4876C19.499 36.2577 19.5443 36.0301 19.6323 35.8178C19.7202 35.6054 19.8492 35.4125 20.0117 35.25L35.2499 20.013C35.4124 19.8504 35.6053 19.7215 35.8176 19.6335C36.03 19.5455 36.2576 19.5003 36.4874 19.5003C36.7173 19.5003 36.9449 19.5455 37.1572 19.6335C37.3696 19.7215 37.5625 19.8504 37.725 20.013L39.9869 22.2748C40.1494 22.4374 40.2784 22.6303 40.3663 22.8426C40.4543 23.055 40.4996 23.2826 40.4996 23.5124C40.4996 23.7423 40.4543 23.9699 40.3663 24.1822C40.2784 24.3946 40.1494 24.5875 39.9869 24.75ZM34.0117 28.25L31.7499 25.987L21.2499 36.487L23.5117 38.75L34.0117 28.25ZM38.7499 23.513L36.4869 21.25L32.9869 24.75L35.2499 27.013L38.7499 23.513Z" fill="white"/>
</svg>
