<svg width="61" height="61" viewBox="0 0 61 61" fill="none" xmlns="http://www.w3.org/2000/svg">
<rect x="0.5" y="0.5" width="60" height="60" rx="30" fill="#4989F1"/>
<path d="M24.0597 26.7977L19.6169 30.5L24.0597 34.2024C24.1506 34.2751 24.226 34.3652 24.2816 34.4674C24.3372 34.5696 24.3718 34.6819 24.3835 34.7976C24.3952 34.9134 24.3836 35.0303 24.3496 35.1416C24.3155 35.2528 24.2596 35.3562 24.1851 35.4456C24.1107 35.535 24.0191 35.6086 23.9158 35.6622C23.8126 35.7157 23.6996 35.7482 23.5837 35.7576C23.4677 35.767 23.351 35.7532 23.2404 35.717C23.1299 35.6807 23.0276 35.6228 22.9397 35.5466L17.6897 31.1716C17.5912 31.0895 17.512 30.9867 17.4576 30.8706C17.4032 30.7544 17.375 30.6277 17.375 30.4995C17.375 30.3712 17.4032 30.2446 17.4576 30.1284C17.512 30.0123 17.5912 29.9095 17.6897 29.8274L22.9397 25.4524C23.1181 25.3039 23.3482 25.2323 23.5794 25.2534C23.8106 25.2745 24.0239 25.3866 24.1724 25.565C24.3209 25.7434 24.3925 25.9735 24.3714 26.2047C24.3502 26.4359 24.2381 26.6492 24.0597 26.7977ZM43.3097 29.8274L38.0597 25.4524C37.9714 25.3788 37.8694 25.3234 37.7597 25.2893C37.6499 25.2551 37.5345 25.2429 37.4201 25.2534C37.3056 25.2639 37.1943 25.2968 37.0926 25.3502C36.9908 25.4037 36.9006 25.4767 36.8271 25.565C36.6786 25.7434 36.607 25.9735 36.6281 26.2047C36.6492 26.4359 36.7613 26.6492 36.9397 26.7977L41.3826 30.5L36.9397 34.2024C36.8489 34.2751 36.7735 34.3652 36.7179 34.4674C36.6623 34.5696 36.6277 34.6819 36.616 34.7976C36.6043 34.9134 36.6158 35.0303 36.6499 35.1416C36.6839 35.2528 36.7398 35.3562 36.8143 35.4456C36.8888 35.535 36.9804 35.6086 37.0836 35.6622C37.1869 35.7157 37.2999 35.7482 37.4158 35.7576C37.5318 35.767 37.6485 35.7532 37.759 35.717C37.8696 35.6807 37.9718 35.6228 38.0597 35.5466L43.3097 31.1716C43.4082 31.0895 43.4875 30.9867 43.5419 30.8706C43.5963 30.7544 43.6245 30.6277 43.6245 30.4995C43.6245 30.3712 43.5963 30.2446 43.5419 30.1284C43.4875 30.0123 43.4082 29.9095 43.3097 29.8274ZM34.2983 20.0525C34.1903 20.0133 34.0756 19.9958 33.9608 20.0009C33.846 20.006 33.7334 20.0336 33.6293 20.0823C33.5252 20.1309 33.4317 20.1996 33.3541 20.2844C33.2765 20.3692 33.2164 20.4684 33.1772 20.5764L26.1772 39.8264C26.1379 39.9345 26.1202 40.0493 26.1252 40.1642C26.1302 40.2791 26.1578 40.3919 26.2065 40.4962C26.2552 40.6004 26.3239 40.694 26.4088 40.7716C26.4937 40.8493 26.593 40.9094 26.7011 40.9486C26.797 40.9827 26.898 41.0001 26.9997 41C27.1794 41 27.3548 40.9447 27.5019 40.8416C27.6491 40.7385 27.7609 40.5925 27.8222 40.4236L34.8222 21.1736C34.8615 21.0656 34.879 20.9509 34.8739 20.8361C34.8688 20.7213 34.8411 20.6087 34.7925 20.5046C34.7438 20.4005 34.6752 20.307 34.5904 20.2294C34.5056 20.1518 34.4063 20.0917 34.2983 20.0525Z" fill="white"/>
</svg>
