<svg width="60" height="60" viewBox="0 0 60 60" fill="none" xmlns="http://www.w3.org/2000/svg">
<rect width="60" height="60" rx="30" fill="#4989F1"/>
<path d="M39.6023 28.9244C39.5692 28.7841 39.5019 28.6542 39.4065 28.5462C39.3111 28.4382 39.1905 28.3555 39.0554 28.3053L32.7543 25.9417L34.3578 17.9212C34.3941 17.7349 34.3688 17.5418 34.2857 17.3711C34.2027 17.2003 34.0663 17.0613 33.8973 16.9748C33.7282 16.8884 33.5357 16.8593 33.3486 16.8919C33.1616 16.9245 32.9903 17.0171 32.8604 17.1556L20.6104 30.2806C20.5109 30.3855 20.439 30.5133 20.4009 30.6527C20.3629 30.7922 20.36 30.9389 20.3925 31.0797C20.425 31.2205 20.4919 31.3511 20.5872 31.4598C20.6825 31.5685 20.8032 31.6519 20.9386 31.7025L27.2418 34.0661L25.6428 42.0778C25.6065 42.2642 25.6318 42.4573 25.7148 42.628C25.7979 42.7987 25.9342 42.9378 26.1033 43.0242C26.2723 43.1106 26.4649 43.1397 26.6519 43.1071C26.839 43.0745 27.0103 42.982 27.1401 42.8434L39.3901 29.7184C39.4878 29.6136 39.5583 29.4863 39.5953 29.3479C39.6323 29.2094 39.6347 29.064 39.6023 28.9244ZM27.9626 39.4058L29.1078 33.6767C29.1488 33.4735 29.1163 33.2624 29.0161 33.0809C28.916 32.8994 28.7547 32.7594 28.5609 32.6858L22.7815 30.5147L32.0368 20.5987L30.8928 26.3278C30.8518 26.531 30.8843 26.7421 30.9844 26.9236C31.0846 27.1051 31.2459 27.2451 31.4397 27.3187L37.2147 29.4844L27.9626 39.4058Z" fill="white"/>
</svg>
